<?xml version="1.0" standalone="no"?>
<!DOCTYPE svg PUBLIC "-//W3C//DTD SVG 20010904//EN"
 "http://www.w3.org/TR/2001/REC-SVG-20010904/DTD/svg10.dtd">
<svg version="1.0" xmlns="http://www.w3.org/2000/svg"
 width="700.000000pt" height="700.000000pt" viewBox="0 0 700.000000 700.000000"
 preserveAspectRatio="xMidYMid meet">
<metadata>
Created by potrace 1.11, written by Peter Selinger 2001-2013
</metadata>
<g transform="translate(0.000000,700.000000) scale(0.100000,-0.100000)"
fill="#000000" stroke="none">
<path d="M3250 6985 c-391 -61 -717 -220 -992 -484 -275 -264 -456 -590 -527
-951 -32 -167 -34 -202 -35 -851 l-2 -616 -65 -79 c-302 -364 -479 -766 -550
-1249 -15 -100 -19 -478 -6 -590 33 -281 139 -623 267 -861 385 -714 1057
-1179 1860 -1288 121 -16 516 -14 615 3 33 6 80 14 105 17 136 19 413 104 568
175 35 16 65 29 66 29 2 0 50 25 107 56 440 239 805 619 1030 1074 89 179 172
426 203 605 3 17 10 53 15 82 33 169 35 509 6 723 -41 300 -151 616 -306 881
-77 132 -129 206 -224 324 l-82 101 0 574 c0 509 -6 781 -18 801 -3 3 -7 25
-10 48 -24 190 -145 493 -273 683 -287 424 -697 691 -1207 784 -119 21 -430
26 -545 9z m370 -629 c381 -37 736 -278 914 -620 19 -38 41 -85 47 -105 6 -20
15 -40 19 -46 7 -10 38 -124 47 -175 2 -14 6 -36 10 -50 8 -40 11 -780 2 -780
-4 0 -11 4 -14 10 -3 5 -30 21 -58 34 -29 13 -72 33 -97 44 -171 79 -440 159
-600 178 -25 3 -51 7 -58 10 -77 24 -521 25 -682 0 -243 -37 -492 -114 -712
-220 -54 -25 -99 -46 -101 -46 -6 0 0 700 7 750 54 416 326 773 713 934 97 41
246 75 352 82 53 4 97 8 99 9 1 1 15 1 30 -1 15 -1 52 -5 82 -8z"/>
</g>
</svg>
